<?xml version="1.0" encoding="UTF-8"?>
<svg xmlns="http://www.w3.org/2000/svg" xmlns:xlink="http://www.w3.org/1999/xlink" width="30px" height="30px" viewBox="0 0 30 30" version="1.1">
<g id="surface1">
<path style=" stroke:none;fill-rule:nonzero;fill:rgb(0%,0%,0%);fill-opacity:1;" d="M 9.375 0 C 10.410156 0 11.25 0.839844 11.25 1.875 L 11.25 3.75 L 18.75 3.75 L 18.75 1.875 C 18.75 0.839844 19.589844 0 20.625 0 C 21.660156 0 22.5 0.839844 22.5 1.875 L 22.5 3.75 L 25.3125 3.75 C 26.863281 3.75 28.125 5.011719 28.125 6.5625 L 28.125 9.375 L 1.875 9.375 L 1.875 6.5625 C 1.875 5.011719 3.136719 3.75 4.6875 3.75 L 7.5 3.75 L 7.5 1.875 C 7.5 0.839844 8.339844 0 9.375 0 Z M 1.875 11.25 L 28.125 11.25 L 28.125 27.1875 C 28.125 28.738281 26.863281 30 25.3125 30 L 4.6875 30 C 3.136719 30 1.875 28.738281 1.875 27.1875 Z M 5.625 15.9375 L 5.625 17.8125 C 5.625 18.328125 6.046875 18.75 6.5625 18.75 L 8.4375 18.75 C 8.953125 18.75 9.375 18.328125 9.375 17.8125 L 9.375 15.9375 C 9.375 15.421875 8.953125 15 8.4375 15 L 6.5625 15 C 6.046875 15 5.625 15.421875 5.625 15.9375 Z M 13.125 15.9375 L 13.125 17.8125 C 13.125 18.328125 13.546875 18.75 14.0625 18.75 L 15.9375 18.75 C 16.453125 18.75 16.875 18.328125 16.875 17.8125 L 16.875 15.9375 C 16.875 15.421875 16.453125 15 15.9375 15 L 14.0625 15 C 13.546875 15 13.125 15.421875 13.125 15.9375 Z M 21.5625 15 C 21.046875 15 20.625 15.421875 20.625 15.9375 L 20.625 17.8125 C 20.625 18.328125 21.046875 18.75 21.5625 18.75 L 23.4375 18.75 C 23.953125 18.75 24.375 18.328125 24.375 17.8125 L 24.375 15.9375 C 24.375 15.421875 23.953125 15 23.4375 15 Z M 5.625 23.4375 L 5.625 25.3125 C 5.625 25.828125 6.046875 26.25 6.5625 26.25 L 8.4375 26.25 C 8.953125 26.25 9.375 25.828125 9.375 25.3125 L 9.375 23.4375 C 9.375 22.921875 8.953125 22.5 8.4375 22.5 L 6.5625 22.5 C 6.046875 22.5 5.625 22.921875 5.625 23.4375 Z M 14.0625 22.5 C 13.546875 22.5 13.125 22.921875 13.125 23.4375 L 13.125 25.3125 C 13.125 25.828125 13.546875 26.25 14.0625 26.25 L 15.9375 26.25 C 16.453125 26.25 16.875 25.828125 16.875 25.3125 L 16.875 23.4375 C 16.875 22.921875 16.453125 22.5 15.9375 22.5 Z M 20.625 23.4375 L 20.625 25.3125 C 20.625 25.828125 21.046875 26.25 21.5625 26.25 L 23.4375 26.25 C 23.953125 26.25 24.375 25.828125 24.375 25.3125 L 24.375 23.4375 C 24.375 22.921875 23.953125 22.5 23.4375 22.5 L 21.5625 22.5 C 21.046875 22.5 20.625 22.921875 20.625 23.4375 Z M 20.625 23.4375 "/>
</g>
</svg>
